<svg id="Capa_1" enable-background="new 0 0 512 512" height="512" viewBox="0 0 512 512" width="512" xmlns="http://www.w3.org/2000/svg"><g><path d="m450.873 196.06-5.61-89.36h-104.27l-84.99-106.7c-5.42 0-10.42 2.92-13.07 7.65-27.39 48.68-63.66 78.59-107.82 88.89-33.18 7.75-58.91 1.05-59.11 1-4.13-1.14-8.56-.46-12.16 1.87-3.6 2.34-6.03 6.1-6.67 10.34-.41 2.7-9.71 66.34 6.84 146.25v.01l191.99 255.99c2.44 0 4.87-.59 7.08-1.78 53.3-28.55 96.59-67.47 128.66-115.69 25.58-38.46 44.05-82.8 54.91-131.79.5-2.26.98-4.51 1.44-6.74h-.01z" fill="#d599ed"/><path d="m448.083 256h.01c-.46 2.23-.94 4.48-1.44 6.74-10.86 48.99-29.33 93.33-54.91 131.79-32.07 48.22-75.36 87.14-128.66 115.69-2.21 1.19-4.64 1.78-7.08 1.78v-512l84.99 106.7h104.27l5.61 89.36z" fill="#ad77e3"/><path d="m449.603 149.09 6.5-28.3c-.61-6.55-1.18-10.41-1.27-11.03-.64-4.24-3.04-8.02-6.64-10.35-3.6-2.34-8-3.03-12.13-1.88-.09.02-3.8.99-10.15 1.77l-23.93 8.68-17.31-9.86c-2.54-.43-5.13-.96-7.78-1.58-11.98-2.8-23.39-7.03-34.19-12.7h-.01l-17.56.01-7.93-16.94c-18.22-14.9-34.31-34.69-48.13-59.26-2.7-4.81-7.75-7.66-13.07-7.65v128.1l4.15 22.52-4.15 19.92v56.25l5.68 19.32 7.53 9.89h53.73l30.49-5.55 11.62 5.55h83.03c7.42-36.08 9.59-68.84 9.71-94.17z" fill="#fd9025"/><g fill="#fabe2c"><path d="m256.003 256h-53.47l-17.44 4.4-24.98-4.4h-95.77c0 1.05.11 2.11.34 3.16 5.3 24.66 12.59 48.35 21.7 70.57l12.79 16.97.6 12.07c6.02 11.71 12.62 23.01 19.77 33.8l13.55 11.49 4.29 13.09c8.28 10.4 17.16 20.32 26.58 29.68l18.83 6.94 3.32 13.33c20.35 17.27 41.01 31.44 62.81 43.12 2.21 1.19 4.65 1.78 7.08 1.78v-114.79l-6.06-8.89 6.06-33.53v-56.26l-6.06-11.57 6.06-30.85z"/><path d="m425.913 99.3-156.7 156.7h-13.21v-29.21l128.67-128.67c17.34 3.04 32.05 2.3 41.24 1.18z"/><path d="m457.793 161.83-92.74 94.17h-42.11l133.16-135.21c.85 9.04 1.78 23.2 1.69 41.04z"/><path d="m342.693 83.84-86.69 86.7v-42.44l61.2-61.19c8.08 6.61 16.58 12.25 25.49 16.93z"/></g><path d="m256.003 256.11v42.42l-118.62 118.62c-3.66-4.6-7.2-9.29-10.62-14.07-2.47-3.45-4.87-6.95-7.22-10.51z" fill="#fed843"/><path d="m202.533 256-102.76 102.77c-3.29-6.39-6.4-12.91-9.33-19.53-1.39-3.14-2.74-6.31-4.06-9.51l73.73-73.73z" fill="#fed843"/><path d="m256.003 354.79v42.42l-69.89 69.89c-3.59-3.04-7.17-6.19-10.75-9.43-3.88-3.52-7.68-7.13-11.4-10.84z" fill="#fed843"/></g></svg>